<svg data-v-0dd9719b="" version="1.0" xmlns="http://www.w3.org/2000/svg" xmlns:xlink="http://www.w3.org/1999/xlink" width="100%" height="100%" viewBox="0 0 340.000000 250.000000" preserveAspectRatio="xMidYMid meet" color-interpolation-filters="sRGB" style="margin: auto;"> <rect data-v-0dd9719b="" x="0" y="0" width="100%" height="100%" fill="#fff" fill-opacity="1" class="background"></rect> <rect data-v-0dd9719b="" x="0" y="0" width="100%" height="100%" fill="url(#watermark)" fill-opacity="1" class="watermarklayer"></rect> <g data-v-0dd9719b="" fill="#9c49fe" class="icon-text-wrapper icon-svg-group iconsvg" transform="translate(80,74.51421356201172)"><g class="iconsvg-imagesvg" transform="translate(60,0)"><g><rect fill="#9c49fe" fill-opacity="0" stroke-width="2" x="0" y="0" width="60" height="60.241568690448695" class="image-rect"></rect> <svg x="0" y="0" width="60" height="60.241568690448695" filtersec="colorsb7756162478" class="image-svg-svg primary" style="overflow: visible;"><svg xmlns="http://www.w3.org/2000/svg" viewBox="-0.006722845137119293 0 124.31855010986328 124.8194580078125"><title>资源 9</title><g><g><path d="M.33 0c31.45.13 67.58.42 99 .66 15.28.12 24.82 9.9 24.87 25.22 0 5.85-.22 11.72.09 17.55.2 3.82-.94 5-4.84 4.92-21.77-.19-43.54-.1-65.31-.08-2.19 0-4.38.1-6.57.16a3.17 3.17 0 0 1-1.35-1.52" fill="#9c49fe"></path><path d="M47.17 48.05a1.57 1.57 0 0 0 .43.38c-.06 23.59-.2 47.18-.11 70.76 0 3.93-.46 5.83-5.19 5.59-7.64-.39-15.34.67-23-.64C8.84 122.34.17 113 .07 102.55c-.18-18.1 0-36.2.1-54.3" fill="#4ad2fe"></path><path d="M47.17 48.05l-47 .19L.33 0C14.39 0 28.44.15 42.5.06c3.28 0 5 .51 4.92 4.5-.26 14.49-.19 28.99-.25 43.49z" fill="#2c3dfc"></path><path d="M76.78 100.56c0-6.39.15-12.79-.06-19.18-.1-3.21.68-4.52 4.22-4.47q19.74.28 39.49 0c3.34 0 3.94 1.26 3.86 4.18-.17 6.21 0 12.42-.05 18.64-.06 14.31-9.37 24.25-23.65 24.9-6.75.31-13.53-.15-20.29.1-3.18.11-3.6-1.28-3.55-3.89.11-6.75.03-13.52.03-20.28z" fill="#feb501"></path></g></g></svg></svg> <!----></g></g> <g transform="translate(0,67.24156951904297)"><g data-gra="path-name" fill-rule="" class="tp-name iconsvg-namesvg"><g transform="scale(1)"><g><path d="M3.54-33.73L0 0 24.68 0 26.29-15.3 24.91-17.69 26.79-20.04 28.22-33.73 3.54-33.73ZM21.97-20.04L6.89-20.04 7.81-29 22.88-29 21.97-20.04ZM20.36-4.73L5.28-4.73 6.39-15.3 21.46-15.3 20.36-4.73ZM28.22 0L32.99 0 36.58-33.73 31.71-33.73 28.22 0ZM69.25 0L63.97 0 61.53-8.64 46.18-8.64 41.96 0 36.58 0 53.17-33.73 59.79-33.73 69.25 0ZM55.93-28.58L48.48-13.37 60.2-13.37 55.93-28.58ZM81.61-29L78.53 0 83.41 0 86.44-29 97.93-29 98.34-33.73 70.68-33.73 70.17-29 81.61-29ZM101.92-33.73L98.34 0 121.09 0 122.7-4.73 103.63-4.73 104.82-15.44 121-15.44 121.5-20.22 105.28-20.22 106.2-29 124.76-29 125.27-33.73 101.92-33.73ZM128.81-33.73L125.27 0 148.02 0 149.62-4.73 130.55-4.73 133.13-29 152.15-29 152.66-33.73 128.81-33.73ZM156.24-33.73L152.66 0 157.48 0 159.09-15.12 173.24-15.12 171.64 0 176.42 0 180-33.73 175.17-33.73 173.75-19.85 159.55-19.85 161.02-33.73 156.24-33.73Z" transform="translate(0, 33.72999954223633)"></path></g> <!----> <!----> <!----> <!----> <!----> <!----> <!----></g></g> <!----></g></g><defs v-gra="od"></defs></svg>